<svg width="69" height="50" viewBox="0 0 69 50" fill="none" xmlns="http://www.w3.org/2000/svg">
<path d="M44.2369 46.6733L40.9013 50L34.5 43.615L28.0987 50L24.7631 46.6733L34.5 36.9622L44.2369 46.6733ZM69 24.496L49.8295 43.6156L19.1705 13.0372L6.67048 25.504L19.1705 37.9709L23.9215 33.2325L15.8349 25.168L19.1705 21.8413L30.5919 33.2325L19.1705 44.6237L0 25.504L19.1705 6.38438L49.8295 36.9628L62.3295 24.496L49.8295 12.0291L45.0785 16.7675L53.1651 24.832L49.8295 28.1587L38.4081 16.7675L49.8295 5.37632L69 24.496ZM44.2369 3.32673L34.5 13.0378L24.7631 3.32673L28.0987 0L34.5 6.38503L40.9013 0L44.2369 3.32673Z" fill="#2C3446"/>
</svg>
